<svg width="156" height="31" viewBox="0 0 156 31" fill="none" xmlns="http://www.w3.org/2000/svg">
<g clip-path="url(#clip0)">
<path d="M2.08996 9.54978L9.38223 18.682C12.2387 15.214 15.0668 11.7805 17.9114 8.32701L16.7456 6.95282C15.8993 7.93878 15.1093 8.93135 14.299 9.9059C13.4843 10.8857 12.6775 11.8724 11.8674 12.8562C11.0581 13.8392 10.2491 14.8224 9.41778 15.8323C9.33551 15.7431 9.26785 15.6782 9.20978 15.6055C7.18379 13.0685 5.1584 10.5309 3.13361 7.99293C2.95162 7.76484 2.94967 7.76239 3.10684 7.51122C4.98649 4.50723 7.5542 2.35033 10.8902 1.24954C15.7181 -0.343529 20.2663 0.337713 24.3812 3.37286C27.5766 5.72979 29.5038 8.95388 30.1789 12.9187C30.6398 15.6255 30.3677 18.2674 29.4021 20.8342C29.3411 20.9964 29.2691 21.1543 29.1768 21.3747C27.897 19.8616 26.6622 18.3751 25.4223 16.893C24.1796 15.4074 22.9379 13.9223 21.6974 12.4376C21.4853 12.583 13.451 22.7682 13.2046 23.2017L14.3572 24.5627C16.8109 21.4407 19.2374 18.3535 21.6986 15.222L28.2711 23.0866C26.6801 26.0812 22.9002 29.5395 17.7522 30.2657C11.8194 31.1025 6.42897 28.379 3.36884 23.7635C0.299277 19.1339 0.337 13.4876 2.08996 9.54978ZM22.1207 6.25842L8.11341 23.1631L9.35156 24.6364C9.42451 24.5172 9.4665 24.4257 9.52826 24.351C11.2016 22.3289 12.8761 20.3078 14.5519 18.2877C16.7824 15.5959 19.0127 12.9039 21.2428 10.2117C21.8751 9.44856 22.5074 8.68551 23.1398 7.92252C23.3153 7.71031 23.3139 7.70519 23.1334 7.48242C23.0238 7.34701 22.9133 7.21227 22.802 7.0782C22.5879 6.81988 22.3732 6.56217 22.1207 6.25842Z" fill="#2F53A0"/>
<path d="M59.6136 10.6709C60.0048 10.4562 60.3823 10.2187 60.7833 10.0342C62.6701 9.16631 64.5925 9.10275 66.4939 9.9358C68.0907 10.6355 68.9379 11.9664 69.2225 13.6771C69.298 14.153 69.3353 14.6344 69.3339 15.1165C69.3441 17.8136 69.339 20.5108 69.3387 23.2079C69.3386 23.8033 69.3172 23.825 68.7466 23.8251C68.3472 23.8252 67.9479 23.8276 67.5485 23.8242C67.2193 23.8214 67.1355 23.7344 67.1224 23.3933C67.1187 23.2948 67.1212 23.196 67.1212 23.0973C67.1211 20.3125 67.121 17.5276 67.1207 14.7428C67.1204 14.0396 66.9839 13.3696 66.6166 12.7637C66.2356 12.135 65.6784 11.7313 64.982 11.5557C63.5272 11.1887 62.1563 11.416 60.8824 12.2241C60.8439 12.2532 60.8076 12.2851 60.7736 12.3195C60.786 12.3921 60.8034 12.4637 60.8258 12.5338C61.1294 13.3089 61.2499 14.1202 61.2523 14.9468C61.2603 17.7316 61.2554 20.5165 61.2551 23.3013C61.2581 23.378 61.2558 23.4548 61.2484 23.5312C61.2216 23.7252 61.1441 23.8164 60.9577 23.8196C60.4182 23.8289 59.8786 23.8294 59.3389 23.8209C59.1497 23.8182 59.0739 23.7353 59.0485 23.5363C59.0373 23.4162 59.0337 23.2956 59.0377 23.1751C59.0372 20.3793 59.0371 17.5835 59.0374 14.7877C59.0375 14.2802 58.9776 13.7825 58.8202 13.2984C58.5143 12.3572 57.8861 11.7667 56.9435 11.5244C56.1434 11.3187 55.3352 11.3587 54.5329 11.4965C54.1197 11.5675 53.7169 11.6998 53.3088 11.8022C53.1482 11.8424 53.0726 11.9378 53.0879 12.1093C53.0956 12.1962 53.0889 12.2846 53.0889 12.3723C53.0889 15.9794 53.0888 19.5866 53.0888 23.1937C53.0888 23.7982 53.0623 23.8249 52.4725 23.8251C52.0623 23.8252 51.6522 23.8287 51.2421 23.8235C50.9744 23.8202 50.8947 23.7421 50.873 23.4779C50.8649 23.3798 50.8694 23.2806 50.8694 23.182C50.8693 19.1692 50.8693 15.1563 50.8694 11.1435C50.8694 10.5449 50.8821 10.5252 51.4273 10.2952C52.8581 9.69153 54.3402 9.34559 55.8976 9.37425C57.2059 9.39833 58.4136 9.72702 59.4524 10.5739C59.486 10.6013 59.5212 10.6266 59.5578 10.6499C59.5755 10.659 59.5943 10.666 59.6136 10.6709Z" fill="#2F53A0"/>
<path d="M91.6181 21.2011C91.6684 21.0029 91.7238 20.8059 91.7684 20.6065C92.2085 18.6384 92.7683 16.7048 93.3744 14.7838C93.8254 13.354 94.2595 11.9188 94.7013 10.486C94.7238 10.4128 94.7446 10.339 94.7698 10.2667C94.8782 9.95558 94.9291 9.91805 95.2663 9.91673C95.7627 9.91479 96.2591 9.9149 96.7556 9.91706C97.0886 9.91906 97.1396 9.95137 97.2388 10.2819C98.295 13.8027 99.4965 17.28 100.323 20.8698C100.345 20.9751 100.396 21.0717 100.471 21.1478C100.504 21.0386 100.54 20.9304 100.569 20.8202C101.049 18.954 101.514 17.0838 102.01 15.2222C102.47 13.4988 102.962 11.7843 103.441 10.0663C103.542 9.70512 103.571 9.68259 103.93 9.68038C104.405 9.67745 104.88 9.67604 105.355 9.68106C105.706 9.68478 105.782 9.7851 105.682 10.1288C105.382 11.1583 105.076 12.186 104.773 13.2142C103.868 16.2772 102.964 19.3402 102.059 22.4031C101.954 22.7598 101.851 23.1172 101.74 23.4722C101.647 23.7717 101.581 23.8216 101.278 23.8236C100.727 23.8271 100.177 23.8258 99.6266 23.8242C99.2616 23.8232 99.2273 23.7963 99.1225 23.4511C98.4522 21.2429 97.7867 19.0332 97.1101 16.827C96.7249 15.5709 96.4069 14.2979 96.1278 13.014C96.1058 12.9128 96.0733 12.814 96.0249 12.639C95.9687 12.7839 95.9329 12.8501 95.9171 12.9209C95.2396 15.9483 94.251 18.8838 93.3621 21.8488C93.1986 22.394 93.0327 22.9385 92.8644 23.4822C92.7676 23.7965 92.7334 23.8225 92.405 23.8239C91.8546 23.8263 91.3042 23.8263 90.7538 23.824C90.4224 23.8226 90.3878 23.7948 90.2955 23.4843C89.1017 19.468 87.908 15.4516 86.7144 11.4353C86.5959 11.0365 86.475 10.6386 86.357 10.2397C86.3288 10.1568 86.3087 10.0714 86.2969 9.98452C86.2787 9.78873 86.3526 9.68847 86.5474 9.68551C87.1084 9.67704 87.6696 9.68077 88.2308 9.68483C88.4586 9.68648 88.5369 9.85107 88.5889 10.0436C88.7399 10.6034 88.8929 11.1625 89.0481 11.7211C89.9018 14.7997 90.7347 17.8839 91.4774 20.9925C91.4946 21.0646 91.5209 21.1345 91.543 21.2054L91.6181 21.2011Z" fill="#2F53A0"/>
<path d="M147.02 10.1947V9.73912C147.02 8.10577 147.02 6.47242 147.02 4.83906C147.02 4.74042 147.016 4.64122 147.025 4.54327C147.042 4.34712 147.113 4.25802 147.306 4.25413C147.846 4.2433 148.385 4.24417 148.925 4.25225C149.114 4.25509 149.19 4.34108 149.215 4.53686C149.224 4.63506 149.227 4.73376 149.224 4.83234C149.224 10.73 149.224 16.6276 149.224 22.5252C149.224 22.58 149.225 22.6349 149.223 22.6896C149.213 23.0316 149.167 23.0995 148.849 23.2198C147.936 23.5643 146.993 23.7935 146.032 23.9448C145.027 24.1031 144.015 24.163 142.999 24.0896C141.884 24.0091 140.831 23.7216 139.897 23.0698C138.846 22.3362 138.256 21.2949 137.966 20.0572C137.828 19.4477 137.761 18.8237 137.768 18.1982C137.77 17.0364 137.75 15.8736 137.79 14.713C137.83 13.5387 138.165 12.4471 138.876 11.4981C139.64 10.4774 140.665 9.86681 141.879 9.57457C143.509 9.18237 145.092 9.35038 146.624 10.0292C146.73 10.0762 146.838 10.119 147.02 10.1947ZM147.02 16.9877C147.02 16.1105 147.02 15.2333 147.02 14.3562C147.02 13.775 147.013 13.1938 147.023 12.6129C147.026 12.4259 146.97 12.2964 146.807 12.2118C146.74 12.1769 146.678 12.1315 146.612 12.0946C145.339 11.3826 143.983 11.1956 142.569 11.4859C141.44 11.7175 140.62 12.3597 140.253 13.4972C140.127 13.8884 140.036 14.3084 140.026 14.7178C139.994 15.9778 140.005 17.239 140.01 18.4998C140.016 18.7736 140.041 19.0466 140.084 19.3169C140.305 20.8501 141.22 21.8233 142.722 22.0647C144.064 22.2803 145.39 22.1448 146.691 21.7536C147.019 21.6549 147.019 21.649 147.019 21.2968C147.02 19.8604 147.02 18.424 147.02 16.9877V16.9877Z" fill="#2F53A0"/>
<path d="M116.437 15.6028C116.465 14.7059 116.49 13.8523 116.186 13.034C115.838 12.0992 115.124 11.6151 114.186 11.4735C112.566 11.2294 111.028 11.5182 109.579 12.2896C109.125 12.5318 109.128 12.542 108.833 12.1156C108.634 11.8288 108.434 11.543 108.245 11.25C108.06 10.9635 108.09 10.8491 108.378 10.6655C109.343 10.0502 110.401 9.69116 111.519 9.51027C112.45 9.35977 113.385 9.31721 114.324 9.43476C115.17 9.54075 115.97 9.78537 116.684 10.272C117.711 10.9722 118.273 11.9833 118.501 13.1908C118.591 13.6751 118.637 14.1666 118.638 14.6594C118.651 17.2897 118.644 19.9202 118.644 22.5506C118.644 22.6273 118.645 22.704 118.644 22.7807C118.639 23.1131 118.602 23.1909 118.295 23.286C117.759 23.4518 117.222 23.6183 116.676 23.7419C115.264 24.0657 113.813 24.1821 112.368 24.0875C111.325 24.0176 110.322 23.7803 109.404 23.2458C108.125 22.5011 107.486 21.3581 107.414 19.8822C107.364 18.8424 107.596 17.8775 108.269 17.0594C108.789 16.4276 109.462 16.0249 110.216 15.7523C111.289 15.3646 112.404 15.2375 113.531 15.2991C114.423 15.3478 115.311 15.4784 116.2 15.573C116.263 15.5797 116.325 15.5887 116.437 15.6028ZM116.43 17.5326C116.288 17.5036 116.164 17.4714 116.037 17.4534C115.589 17.3897 115.141 17.3159 114.691 17.2733C113.886 17.1971 113.079 17.1429 112.271 17.2466C111.732 17.3157 111.209 17.4361 110.728 17.7019C109.785 18.2228 109.473 19.1793 109.679 20.1605C109.816 20.8133 110.218 21.27 110.779 21.5908C111.393 21.9428 112.067 22.0849 112.762 22.1236C113.914 22.1879 115.041 22.0168 116.153 21.724C116.449 21.6462 116.45 21.6402 116.45 21.3196C116.451 20.1586 116.451 18.9976 116.45 17.8366C116.45 17.7404 116.438 17.6441 116.43 17.5326Z" fill="#2F53A0"/>
<path d="M81.4968 15.5996C81.4968 15.2711 81.5119 14.9775 81.4931 14.6862C81.4671 14.283 81.4538 13.8728 81.3677 13.481C81.1119 12.3172 80.4075 11.6594 79.2483 11.472C78.0858 11.284 76.9427 11.4054 75.8318 11.7803C75.3741 11.9348 74.939 12.1616 74.5002 12.3699C74.2277 12.4993 74.1576 12.4991 73.9859 12.2537C73.7546 11.9233 73.5252 11.5912 73.306 11.2525C73.1167 10.96 73.1438 10.8566 73.4364 10.6682C74.3898 10.054 75.4392 9.70191 76.5454 9.51697C77.4861 9.35971 78.4325 9.31578 79.382 9.43582C79.8967 9.49565 80.4016 9.62344 80.8838 9.81597C82.3426 10.4137 83.2003 11.5272 83.5321 13.0645C83.6307 13.5247 83.6817 13.9942 83.6841 14.4651C83.6979 17.2162 83.6911 19.9673 83.6905 22.7183C83.6904 23.162 83.6826 23.1784 83.257 23.3245C82.2211 23.68 81.1552 23.898 80.07 24.0213C79.1907 24.1243 78.3041 24.1471 77.4208 24.0895C76.5537 24.0302 75.711 23.8522 74.9166 23.4849C73.3656 22.7679 72.5396 21.5475 72.4724 19.81C72.403 18.0187 73.2692 16.6188 74.8916 15.9063C75.9191 15.455 77.0044 15.3042 78.1131 15.2887C79.1739 15.2739 80.2224 15.4068 81.2678 15.5729C81.3201 15.5812 81.3731 15.5854 81.4968 15.5996ZM81.4766 17.5397C81.3924 17.518 81.341 17.5011 81.2884 17.4917C80.1599 17.2891 79.0239 17.1613 77.8767 17.2005C77.2385 17.2223 76.6087 17.3216 76.0171 17.5867C75.4514 17.8402 75.0175 18.2301 74.8047 18.8375C74.4248 19.9217 74.8377 21.0253 75.8388 21.5933C76.455 21.9429 77.1287 22.0853 77.8245 22.1246C78.9775 22.1896 80.1055 22.0158 81.2183 21.7235C81.4939 21.6512 81.4957 21.6453 81.4961 21.3373C81.4975 20.1645 81.4975 18.9916 81.4959 17.8188C81.4958 17.7329 81.4844 17.647 81.4766 17.5397Z" fill="#2F53A0"/>
<path d="M122.707 17.1363C122.707 15.0972 122.707 13.0581 122.708 11.019C122.704 10.9095 122.709 10.8 122.723 10.6913C122.752 10.5005 122.905 10.4231 123.06 10.3728C123.757 10.1453 124.449 9.89383 125.158 9.71261C126.261 9.43055 127.391 9.33327 128.529 9.37733C129.44 9.41262 130.332 9.56296 131.176 9.9314C132.777 10.6307 133.671 11.9026 133.989 13.6083C134.084 14.1252 134.132 14.6498 134.134 15.1757C134.148 17.8724 134.14 20.5693 134.14 23.2661C134.14 23.8052 134.121 23.8243 133.596 23.8247C133.186 23.8251 132.775 23.8268 132.365 23.8241C132.018 23.8218 131.949 23.7544 131.948 23.3995C131.946 22.1388 131.948 20.8781 131.946 19.6174C131.944 18.0608 131.947 16.5041 131.931 14.9476C131.929 14.3644 131.809 13.788 131.579 13.2537C131.111 12.1757 130.245 11.6453 129.145 11.4745C127.788 11.2638 126.457 11.4501 125.142 11.8073C124.962 11.856 124.9 11.9502 124.906 12.1341C124.917 12.4736 124.909 12.8137 124.909 13.1535C124.909 16.5082 124.909 19.8628 124.909 23.2174C124.909 23.8001 124.884 23.8246 124.306 23.8248C123.906 23.8249 123.507 23.8273 123.108 23.8239C122.776 23.8211 122.71 23.7584 122.709 23.4179C122.705 22.5299 122.707 21.6419 122.707 20.754C122.707 19.5481 122.707 18.3422 122.707 17.1363Z" fill="#2F53A0"/>
<path d="M42.1074 24.1176C40.2527 24.1254 38.5554 23.6041 37.0154 22.5537C36.5668 22.2467 36.5538 22.1836 36.8259 21.7096C37.0107 21.3877 37.1922 21.0637 37.3821 20.745C37.5434 20.4742 37.6449 20.4518 37.9015 20.6408C38.597 21.1529 39.3436 21.5616 40.1664 21.8206C41.2378 22.1578 42.3235 22.2528 43.4232 21.9913C43.944 21.8674 44.4171 21.6438 44.8132 21.2582C45.4676 20.6211 45.7033 19.202 44.4877 18.4751C43.9107 18.1301 43.2706 17.9777 42.6253 17.8415C41.6539 17.6363 40.6795 17.4429 39.7525 17.0682C38.9512 16.7442 38.2121 16.3248 37.6564 15.6321C37.1756 15.0327 36.9233 14.3422 36.9269 13.5706C36.9287 13.1899 36.9467 12.7991 37.0329 12.4311C37.2839 11.3591 37.9687 10.6272 38.9063 10.1206C39.81 9.63237 40.7886 9.42646 41.8002 9.37939C43.5446 9.29822 45.1823 9.70011 46.7146 10.5487C46.7903 10.5906 46.8665 10.6321 46.939 10.6794C47.0677 10.7633 47.1083 10.882 47.0304 11.018C46.7809 11.4537 46.5314 11.8897 46.2689 12.3174C46.1712 12.4764 46.0531 12.4783 45.8418 12.3838C45.4176 12.1941 45.0009 11.9818 44.5649 11.8256C43.4489 11.4257 42.3009 11.2797 41.1234 11.4702C40.6738 11.5387 40.2432 11.7021 39.8596 11.95C38.8814 12.5882 38.7698 14.1155 39.8689 14.8158C40.2629 15.0666 40.6948 15.2498 41.1474 15.3581C41.9128 15.5431 42.6842 15.7029 43.4512 15.8814C44.2411 16.0652 45.0191 16.2862 45.7369 16.6843C47.1002 17.4403 47.6748 18.623 47.5593 20.1724C47.4369 21.8164 46.5558 22.9019 45.1082 23.556C44.2463 23.9453 43.2951 24.1166 42.1074 24.1176Z" fill="#2F53A0"/>
<path d="M153.466 16.7301C153.466 14.5703 153.466 12.4105 153.466 10.2507C153.466 9.69951 153.487 9.67969 154.034 9.67915C154.444 9.67874 154.854 9.67531 155.264 9.6809C155.577 9.68517 155.644 9.75474 155.661 10.0654C155.665 10.1529 155.663 10.2408 155.663 10.3285C155.663 14.6152 155.663 18.902 155.663 23.1887C155.663 23.8195 155.657 23.8242 155.027 23.8243C154.627 23.8243 154.228 23.8285 153.829 23.8225C153.557 23.8184 153.483 23.7413 153.468 23.4726C153.463 23.3742 153.466 23.2753 153.466 23.1767C153.466 21.0278 153.466 18.879 153.466 16.7301Z" fill="#2F53A0"/>
<path d="M155.891 5.70631C155.886 6.49833 155.338 7.04495 154.558 7.03462C153.804 7.02461 153.231 6.42854 153.244 5.66578C153.257 4.89643 153.824 4.35803 154.614 4.36531C155.385 4.37241 155.896 4.9088 155.891 5.70631Z" fill="#2F53A0"/>
</g>
<defs>
<clipPath id="clip0">
<rect width="155" height="30" fill="white" transform="translate(0.890625 0.414062)"/>
</clipPath>
</defs>
</svg>
