<svg width="17" height="17" viewBox="0 0 17 17" fill="none" xmlns="http://www.w3.org/2000/svg">
<path d="M0.212402 3.22042C0.212402 1.92993 1.25855 0.883789 2.54903 0.883789H13.8428C15.1332 0.883789 16.1794 1.92994 16.1794 3.22042V14.5141C16.1794 15.8046 15.1332 16.8508 13.8428 16.8508H2.54903C1.25855 16.8508 0.212402 15.8046 0.212402 14.5141V3.22042Z" fill="#1F50C9"/>
<path d="M5.40662 4.41755C5.40662 3.98739 5.75533 3.63867 6.18549 3.63867H10.2296C10.6597 3.63867 11.0085 3.98739 11.0085 4.41755V13.1921C11.0085 13.6222 10.6597 13.971 10.2296 13.971H6.18549C5.75533 13.971 5.40662 13.6222 5.40662 13.1921V4.41755Z" fill="white"/>
<path d="M8.35166 4.43108L5.27576 3.57666V14.0334L8.35166 13.179C8.52021 13.1322 8.63686 12.9787 8.63686 12.8038V4.80631C8.63686 4.63137 8.52021 4.4779 8.35166 4.43108Z" fill="#1F50C9"/>
</svg>
