<svg xmlns="http://www.w3.org/2000/svg" width="96" height="24.213" viewBox="0 0 96 24.213"><g transform="translate(-75.833 -247.118)"><path d="M84.012,267.371c-2.175,0-3.992-1.655-3.992-4.544,0-2.921,1.817-4.511,3.992-4.511,2.207,0,3.96,1.59,3.96,4.511s-1.753,4.544-3.96,4.544m.909-12.918a5.68,5.68,0,0,0-4.836,2.175v-9.283H75.833v23.5H80.02V268.9a5.4,5.4,0,0,0,4.738,2.337c4.544,0,7.53-3.6,7.53-8.438,0-4.739-2.694-8.342-7.367-8.342"/><rect width="4.317" height="15.968" transform="translate(94.457 254.875)"/><path d="M115.455,253.058v1.817h-7.307V250.1h-3.894v2.24a2.3,2.3,0,0,1-2.467,2.531h-.811v3.83h2.888v7.433c0,3.083,1.948,4.933,5.064,4.933a6.389,6.389,0,0,0,2.434-.39v-3.57a6.268,6.268,0,0,1-1.331.13c-1.233,0-1.883-.454-1.883-1.85v-6.629h7.307v12.082H119.8V258.575h3.6v-3.7h-3.6v-1.752c0-1.785,1.016-2.041,1.989-2.041h1.317v-3.951s-.937-.013-1.846-.013c-3.538,0-5.809,2.337-5.809,5.94"/><path d="M140,254.875h-4.317v9.283a2.881,2.881,0,0,1-3.018,3.148c-2.013,0-2.922-1.428-2.922-3.213v-9.218h-4.316v10.094c0,3.473,2.207,6.3,6.069,6.3a5.045,5.045,0,0,0,4.414-2.143,10.924,10.924,0,0,0,.13,1.721h4.122a26.277,26.277,0,0,1-.162-2.889Z"/><path d="M146.293,261.042a3.454,3.454,0,0,1,3.57-3.148,3.211,3.211,0,0,1,3.57,3.148Zm3.505-6.653c-4.089,0-7.854,3.31-7.854,8.4a8.089,8.089,0,0,0,8.244,8.537,7.193,7.193,0,0,0,7.27-5.064l-3.6-1.071a3.526,3.526,0,0,1-3.635,2.434,3.888,3.888,0,0,1-4.024-3.635H157.62c0-.065.065-.714.065-1.33,0-5.128-2.953-8.276-7.887-8.276"/><path d="M159.627,271.223h4.317l.122-24.092h-4.317Z"/><circle cx="2.634" cy="2.634" r="2.634" transform="translate(166.564 265.954)"/></g></svg>