<svg xmlns="http://www.w3.org/2000/svg" width="120" height="53.202" viewBox="0 0 120 53.202"><path d="M1461.277,501.161c-1.363,0-2.488-.06-3.535-.079V487.773c1.046-.019,2.587-.079,4.127-.079,4.206,0,6.793,1.916,6.793,6.536,0,4.581-3.041,6.931-7.385,6.931m.434-11.69c-.652,0-1.343.02-1.816.059v9.7a13.4,13.4,0,0,0,1.6.1c2.863,0,4.878-1.521,4.878-4.937,0-3.16-1.4-4.917-4.66-4.917" transform="translate(-1422.534 -461.168)"/><path d="M1479,501.131v-1.64l5.253-8.352c.316-.513.632-.967.988-1.441-.573.02-1.344.02-2.706.02h-3.337V487.8h8.59v1.7l-5.529,8.629c-.218.375-.435.691-.691,1.066.354-.04,1.421-.04,3.12-.04h3.179v1.975H1479" transform="translate(-1432.051 -461.216)"/><path d="M1502.467,501.142c-.81,0-2.153-.04-3.634-.059V487.754c1.046-.02,2.567-.06,4.186-.06,2.9,0,4.4,1.185,4.4,3.239a3.261,3.261,0,0,1-2.271,3.041v.04a2.985,2.985,0,0,1,2.547,3.041c0,1.738-1.146,4.088-5.232,4.088m.2-11.729c-.592,0-1.165.019-1.678.04V493.4c.354.02.691.02,1.145.02,1.995,0,3.041-.81,3.041-2.152,0-1.086-.612-1.856-2.507-1.856m-.474,5.607c-.217,0-.908,0-1.2.02v4.246a9.722,9.722,0,0,0,1.559.1c1.955,0,2.883-.948,2.883-2.291,0-1.521-1.363-2.074-3.239-2.074" transform="translate(-1440.934 -461.168)"/><path d="M1531.433,501.142c-.81,0-2.153-.04-3.633-.059V487.754c1.046-.02,2.567-.06,4.186-.06,2.9,0,4.4,1.185,4.4,3.239a3.26,3.26,0,0,1-2.27,3.041v.04a2.986,2.986,0,0,1,2.547,3.041c0,1.738-1.146,4.088-5.233,4.088m.2-11.729c-.591,0-1.165.019-1.678.04V493.4c.356.02.691.02,1.146.02,1.994,0,3.04-.81,3.04-2.152,0-1.086-.612-1.856-2.508-1.856m-.473,5.607c-.218,0-.908,0-1.2.02v4.246a9.745,9.745,0,0,0,1.561.1c1.954,0,2.883-.948,2.883-2.291,0-1.521-1.362-2.074-3.238-2.074" transform="translate(-1453.905 -461.168)"/><path d="M1554.874,501.131l-1.026-2.943h-5.391l-1.027,2.943h-2.172l4.778-13.329h2.389l4.838,13.329Zm-3.12-8.846a14.46,14.46,0,0,1-.593-2.054h-.039a15.911,15.911,0,0,1-.612,2.113l-1.5,4.127h4.265l-1.52-4.186" transform="translate(-1461.722 -461.216)"/><path d="M1577.473,501.131l-4.562-7.582a28.13,28.13,0,0,1-1.481-2.8c.079,1.3.119,4.008.119,5.9v4.482h-2.094V487.8h2.824l4.4,7.266c.593.988,1.127,2.054,1.62,3.022-.08-1.521-.139-4.384-.139-6.338V487.8h2.093v13.329h-2.784" transform="translate(-1472.557 -461.216)"/><path d="M1600.439,501.131l-4.838-6.516v6.516h-2.152V487.8h2.152v6.181l4.857-6.181h2.646l-5.292,6.437,5.489,6.892h-2.862" transform="translate(-1483.301 -461.216)"/><path d="M1426.1,522.895h8.867v-2.953H1426.1Z" transform="translate(-1408.364 -475.608)"/><path d="M1426.1,509.521h8.867v-2.953H1426.1Z" transform="translate(-1408.364 -469.619)"/><path d="M1426.1,500.151h8.867V497.2H1426.1Z" transform="translate(-1408.364 -465.424)"/><path d="M1426.1,482.753h8.867V479.8H1426.1Z" transform="translate(-1408.364 -457.633)"/><path d="M1426.1,469.377h8.867v-2.953H1426.1Z" transform="translate(-1408.364 -451.643)"/><path d="M1426.1,450.639h8.867v-2.952H1426.1Z" transform="translate(-1408.364 -443.253)"/><path d="M1410.04,510.117h5.906V507.9h-5.906Z" transform="translate(-1401.174 -470.215)"/><path d="M1410.04,500.082h5.906v-2.217h-5.906Z" transform="translate(-1401.174 -465.722)"/><path d="M1410.04,488.039h5.906v-2.217h-5.906Z" transform="translate(-1401.174 -460.329)"/><path d="M1410.04,477.861h5.906v-2.217h-5.906Z" transform="translate(-1401.174 -455.772)"/><path d="M1410.04,469.974h5.906v-2.217h-5.906Z" transform="translate(-1401.174 -452.24)"/><path d="M1410.04,457.79h5.906v-2.217h-5.906Z" transform="translate(-1401.174 -446.784)"/><path d="M1410.04,449.762h5.906v-2.217h-5.906Z" transform="translate(-1401.174 -443.19)"/><path d="M1410.04,441.875h5.906v-2.217h-5.906Z" transform="translate(-1401.174 -439.658)"/><path d="M1393.984,535.041h5.905v-1.182h-5.905Z" transform="translate(-1393.984 -481.84)"/><path d="M1393.984,527.013h5.905v-1.182h-5.905Z" transform="translate(-1393.984 -478.245)"/><path d="M1393.984,521.124h5.905v-1.182h-5.905Z" transform="translate(-1393.984 -475.608)"/><path d="M1393.984,513.1h5.905v-1.182h-5.905Z" transform="translate(-1393.984 -472.013)"/><path d="M1393.984,501.315h5.905v-1.182h-5.905Z" transform="translate(-1393.984 -466.738)"/><path d="M1393.984,494.9h5.905v-1.182h-5.905Z" transform="translate(-1393.984 -463.865)"/><path d="M1393.984,483.656h5.905v-1.182h-5.905Z" transform="translate(-1393.984 -458.83)"/><path d="M1393.984,474.557h5.905v-1.182h-5.905Z" transform="translate(-1393.984 -454.756)"/><path d="M1393.984,464.925h5.905v-1.182h-5.905Z" transform="translate(-1393.984 -450.443)"/></svg>