<svg width="430" height="418" viewBox="0 0 430 418" fill="none" xmlns="http://www.w3.org/2000/svg">
<g opacity="0.5">
<path d="M237.544 91.1348L198.058 51.6715L237.544 12.2083L277.03 51.6715L237.544 91.1348Z" fill="#60E7C7"/>
</g>
<g opacity="0.5">
<path d="M67.2155 224.409L0.505798 157.738L67.2155 91.0663L133.925 157.738L67.2155 224.409ZM3.66748 157.731L67.2224 221.249L130.777 157.731L67.2224 94.2123L3.66748 157.731Z" fill="#2B0A63"/>
</g>
<path opacity="0.3" d="M335.183 131.253L422.283 218.297L335.189 305.342L248.094 218.295L335.183 131.253ZM418.157 218.295L335.189 135.374L252.22 218.295L335.183 301.223L418.157 218.295Z" fill="url(#paint0_linear)"/>
<path fill-rule="evenodd" clip-rule="evenodd" d="M25.135 251.735H73.8128V390.297H85.2586V251.735H358.688V390.297H370.133V251.735L423.815 251.735C427.229 251.735 429.997 248.968 429.997 245.554C429.997 242.14 427.229 239.373 423.815 239.373H25.135C21.7213 239.373 18.9539 242.14 18.9539 245.554C18.9539 248.968 21.7213 251.735 25.135 251.735Z" fill="url(#paint1_linear)"/>
<path d="M25.135 251.735H423.815C427.229 251.735 429.997 248.968 429.997 245.554C429.997 242.14 427.229 239.373 423.815 239.373H25.135C21.7213 239.373 18.9539 242.14 18.9539 245.554C18.9539 248.968 21.7213 251.735 25.135 251.735Z" fill="white"/>
<path d="M25.135 251.735H423.815C427.229 251.735 429.997 248.968 429.997 245.554C429.997 242.14 427.229 239.373 423.815 239.373H25.135C21.7213 239.373 18.9539 242.14 18.9539 245.554C18.9539 248.968 21.7213 251.735 25.135 251.735Z" fill="url(#paint2_linear)"/>
<rect opacity="0.6" x="73.8128" y="251.735" width="11.4457" height="138.562" fill="#1B3C87"/>
<rect opacity="0.6" x="358.688" y="251.735" width="11.4457" height="138.562" fill="#1B3C87"/>
<g opacity="0.5">
<path d="M18.9539 245.568V245.54C18.9539 245.545 18.9539 245.55 18.9539 245.554C18.9539 245.559 18.9539 245.563 18.9539 245.568Z" fill="url(#paint3_linear)"/>
<path d="M20.9936 240.946C21.909 240.086 23.4204 239.373 25.135 239.373H423.815C424.632 239.373 426.218 239.485 427.942 240.946L20.9936 240.946Z" fill="url(#paint4_linear)"/>
<path d="M362.08 390.297V251.573H358.688V390.297H362.08Z" fill="url(#paint5_linear)"/>
<path d="M77.8149 390.297V251.573H73.8128V390.297H77.8149Z" fill="url(#paint6_linear)"/>
</g>
<path d="M282.085 108.826C282.085 103.304 286.562 98.8264 292.085 98.8264H398.635C404.158 98.8264 408.635 103.304 408.635 108.826V168.306C408.635 173.829 404.158 178.306 398.635 178.306H292.085C286.562 178.306 282.085 173.829 282.085 168.306V108.826Z" fill="#5573A6"/>
<path d="M282.085 108.826C282.085 103.304 286.562 98.8264 292.085 98.8264H398.635C404.158 98.8264 408.635 103.304 408.635 108.826V168.306C408.635 173.829 404.158 178.306 398.635 178.306H292.085C286.562 178.306 282.085 173.829 282.085 168.306V108.826Z" fill="url(#paint7_linear)"/>
<path d="M282.085 108.826C282.085 103.304 286.562 98.8264 292.085 98.8264H398.635C404.158 98.8264 408.635 103.304 408.635 108.826V168.306C408.635 173.829 404.158 178.306 398.635 178.306H292.085C286.562 178.306 282.085 173.829 282.085 168.306V108.826Z" fill="#F3F7FF" fill-opacity="0.85"/>
<path d="M356.319 136.749C356.317 144.838 362.669 151.505 370.755 151.897V159.453C358.208 159.06 348.357 148.575 348.75 136.037C349.127 124.051 358.762 114.421 370.755 114.045V121.6C362.669 121.99 356.317 128.659 356.319 136.749Z" fill="url(#paint8_linear)"/>
<path d="M394.224 136.749C394.232 143.489 391.236 149.883 386.054 154.195L381.176 148.424C387.628 143.075 388.52 133.512 383.17 127.064C380.287 123.591 376.009 121.581 371.493 121.578C371.249 121.578 371.004 121.578 370.762 121.598V114.066H371.493C384.033 114.066 394.203 124.216 394.224 136.749Z" fill="#46DBC9"/>
<path d="M386.054 154.204C381.972 157.62 376.816 159.486 371.493 159.476C371.249 159.476 371.004 159.476 370.762 159.462V151.907C371.004 151.907 371.249 151.923 371.493 151.923C375.031 151.928 378.458 150.695 381.176 148.433L386.054 154.204Z" fill="url(#paint9_linear)"/>
<path d="M41.8402 161.205C41.8402 155.682 46.3173 151.205 51.8402 151.205H133.948C139.47 151.205 143.948 155.682 143.948 161.205V205.333C143.948 210.856 139.47 215.333 133.948 215.333H51.8402C46.3173 215.333 41.8402 210.856 41.8402 205.333V161.205Z" fill="#5573A6"/>
<path d="M41.8402 161.205C41.8402 155.682 46.3173 151.205 51.8402 151.205H133.948C139.47 151.205 143.948 155.682 143.948 161.205V205.333C143.948 210.856 139.47 215.333 133.948 215.333H51.8402C46.3173 215.333 41.8402 210.856 41.8402 205.333V161.205Z" fill="url(#paint10_linear)"/>
<path d="M41.8402 161.205C41.8402 155.682 46.3173 151.205 51.8402 151.205H133.948C139.47 151.205 143.948 155.682 143.948 161.205V205.333C143.948 210.856 139.47 215.333 133.948 215.333H51.8402C46.3173 215.333 41.8402 210.856 41.8402 205.333V161.205Z" fill="#F3F7FF" fill-opacity="0.85"/>
<path d="M52.4922 183.009C52.4909 187.559 56.0635 191.309 60.6121 191.529V195.779C53.5546 195.558 48.0137 189.661 48.2348 182.609C48.4464 175.866 53.866 170.45 60.6121 170.238V174.488C56.0635 174.708 52.4909 178.459 52.4922 183.009Z" fill="url(#paint11_linear)"/>
<path d="M73.8128 183.009C73.8168 186.8 72.1317 190.396 69.217 192.821L66.4735 189.576C70.1027 186.567 70.6042 181.188 67.5951 177.561C65.9733 175.607 63.5669 174.477 61.027 174.476C60.8895 174.476 60.7519 174.476 60.6158 174.486V170.25H61.027C68.0805 170.25 73.8007 175.959 73.8128 183.009Z" fill="#46DBC9"/>
<path d="M69.217 192.827C66.9211 194.748 64.0212 195.798 61.027 195.792C60.8895 195.792 60.7519 195.792 60.6158 195.784V191.535C60.7519 191.535 60.8895 191.544 61.027 191.544C63.0168 191.547 64.9447 190.853 66.4735 189.581L69.217 192.827Z" fill="url(#paint12_linear)"/>
<path d="M137.148 186.311H83.4431V186.624H137.148V186.311Z" fill="url(#paint13_linear)"/>
<path d="M83.4431 175.083C83.4431 175.083 93.073 173.557 95.656 168.981C98.2391 164.405 103.524 163.348 107.746 172.032C111.969 180.715 118.786 181.539 121.249 178.604C123.712 175.67 126.886 165.109 131.231 164.873C135.576 164.637 137.143 173.088 137.143 173.088V183.769H83.4431V175.083Z" fill="#46DBC9"/>
<path d="M100.119 190.538H83.8344V191.711H100.119V190.538Z" fill="url(#paint14_linear)"/>
<path d="M100.119 193.994H83.8344V195.167H100.119V193.994Z" fill="url(#paint15_linear)"/>
<path d="M100.119 197.451H83.8344V198.625H100.119V197.451Z" fill="url(#paint16_linear)"/>
<path d="M109.59 190.538H107.556V191.711H109.59V190.538Z" fill="url(#paint17_linear)"/>
<path d="M109.59 193.994H107.556V195.167H109.59V193.994Z" fill="url(#paint18_linear)"/>
<path d="M109.59 197.451H107.556V198.625H109.59V197.451Z" fill="url(#paint19_linear)"/>
<path d="M88.3636 27.9197C88.3636 22.3968 92.8408 17.9197 98.3636 17.9197H180.471C185.994 17.9197 190.471 22.3968 190.471 27.9197V129.054C190.471 134.577 185.994 139.054 180.471 139.054H98.3636C92.8408 139.054 88.3636 134.577 88.3636 129.054V27.9197Z" fill="#5573A6"/>
<path d="M88.3636 27.9197C88.3636 22.3968 92.8408 17.9197 98.3636 17.9197H180.471C185.994 17.9197 190.471 22.3968 190.471 27.9197V129.054C190.471 134.577 185.994 139.054 180.471 139.054H98.3636C92.8408 139.054 88.3636 134.577 88.3636 129.054V27.9197Z" fill="url(#paint20_linear)"/>
<path d="M88.3636 27.9197C88.3636 22.3968 92.8408 17.9197 98.3636 17.9197H180.471C185.994 17.9197 190.471 22.3968 190.471 27.9197V129.054C190.471 134.577 185.994 139.054 180.471 139.054H98.3636C92.8408 139.054 88.3636 134.577 88.3636 129.054V27.9197Z" fill="#F3F7FF" fill-opacity="0.85"/>
<path d="M176.883 67.8561H98.1446V68.3144H176.883V67.8561Z" fill="url(#paint21_linear)"/>
<path d="M98.1446 51.3949C98.1446 51.3949 112.263 49.1567 116.05 42.4482C119.837 35.7396 127.586 34.1889 133.776 46.9206C139.967 59.6522 149.962 60.8592 153.573 56.5567C157.185 52.2542 161.838 36.7708 168.208 36.4251C174.578 36.0794 176.875 48.4693 176.875 48.4693V64.1286H98.1446V51.3949Z" fill="#46DBC9"/>
<path d="M122.593 74.053H98.7183V75.7736H122.593V74.053Z" fill="#1B3C87"/>
<path d="M122.593 79.1198H98.7183V80.8403H122.593V79.1198Z" fill="#1B3C87"/>
<path d="M122.593 84.1891H98.7183V85.9097H122.593V84.1891Z" fill="white"/>
<path d="M136.48 74.053H133.498V75.7736H136.48V74.053Z" fill="url(#paint22_linear)"/>
<path d="M136.48 79.1199H133.498V80.8405H136.48V79.1199Z" fill="url(#paint23_linear)"/>
<path d="M136.48 84.1892H133.498V85.9098H136.48V84.1892Z" fill="url(#paint24_linear)"/>
<path d="M249.295 10C249.295 4.47715 253.772 0 259.295 0H341.402C346.925 0 351.402 4.47715 351.402 10V54.1286C351.402 59.6515 346.925 64.1286 341.402 64.1286H259.295C253.772 64.1286 249.295 59.6515 249.295 54.1286V10Z" fill="#5573A6"/>
<path d="M249.295 10C249.295 4.47715 253.772 0 259.295 0H341.402C346.925 0 351.402 4.47715 351.402 10V54.1286C351.402 59.6515 346.925 64.1286 341.402 64.1286H259.295C253.772 64.1286 249.295 59.6515 249.295 54.1286V10Z" fill="url(#paint25_linear)"/>
<path d="M249.295 10C249.295 4.47715 253.772 0 259.295 0H341.402C346.925 0 351.402 4.47715 351.402 10V54.1286C351.402 59.6515 346.925 64.1286 341.402 64.1286H259.295C253.772 64.1286 249.295 59.6515 249.295 54.1286V10Z" fill="#F3F7FF" fill-opacity="0.85"/>
<path d="M278.426 12.2083H260.181V12.9895H278.426V12.2083Z" fill="#4E34A6"/>
<path d="M278.426 37.8878H260.181V38.669H278.426V37.8878Z" fill="#4E34A6"/>
<g opacity="0.5">
<path opacity="0.5" d="M278.006 43.3751H262.517V44.1563H278.006V43.3751Z" fill="#4E34A6"/>
<path opacity="0.5" d="M278.005 45.2576H262.516V46.0388H278.005V45.2576Z" fill="#4E34A6"/>
</g>
<g opacity="0.4">
<path opacity="0.4" d="M286.8 52.5928H262.517V53.374H286.8V52.5928Z" fill="#4E34A6"/>
<path opacity="0.4" d="M286.799 54.4752H262.516V55.2564H286.799V54.4752Z" fill="#4E34A6"/>
</g>
<g opacity="0.5">
<path opacity="0.5" d="M319.155 14.0907H260.181V14.8719H319.155V14.0907Z" fill="#4E34A6"/>
<path opacity="0.5" d="M319.155 16.0078H260.181V16.789H319.155V16.0078Z" fill="#4E34A6"/>
</g>
<g opacity="0.3">
<path opacity="0.3" d="M290.368 17.8462H264.073V18.6274H290.368V17.8462Z" fill="#4E34A6"/>
<path opacity="0.3" d="M302.366 19.7285H265.241V20.5097H302.366V19.7285Z" fill="#4E34A6"/>
</g>
<g opacity="0.3">
<path opacity="0.3" d="M307.952 39.6353H260.181V40.4165H307.952V39.6353Z" fill="#4E34A6"/>
</g>
<path opacity="0.8" d="M290.368 32.4099H264.073V33.1911H290.368V32.4099Z" fill="#4E34A6"/>
<path opacity="0.8" d="M286.476 41.5177H260.181V42.2989H286.476V41.5177Z" fill="#4E34A6"/>
<path opacity="0.3" d="M302.366 30.5276H265.241V31.3088H302.366V30.5276Z" fill="#4E34A6"/>
<path opacity="0.5" d="M275.658 21.6111H266.409V22.3923H275.658V21.6111Z" fill="#4E34A6"/>
<path opacity="0.5" d="M275.658 28.5134H266.409V29.2946H275.658V28.5134Z" fill="#4E34A6"/>
<g opacity="0.3">
<path opacity="0.3" d="M341.234 23.4935H267.576V24.2747H341.234V23.4935Z" fill="#4E34A6"/>
<path opacity="0.3" d="M341.234 25.0623H267.577V25.8435H341.234V25.0623Z" fill="#4E34A6"/>
<path opacity="0.3" d="M341.234 26.6311H267.577V27.4123H341.234V26.6311Z" fill="#4E34A6"/>
</g>
<g opacity="0.3">
<path opacity="0.3" d="M325.602 47.3627H264.464V48.1439H325.602V47.3627Z" fill="#4E34A6"/>
<path opacity="0.3" d="M325.601 48.9312H264.462V49.7124H325.601V48.9312Z" fill="#4E34A6"/>
<path opacity="0.3" d="M325.601 50.4999H264.462V51.2811H325.601V50.4999Z" fill="#4E34A6"/>
</g>
<g opacity="0.3">
<path opacity="0.3" d="M319.058 34.3613H260.181V35.1425H319.058V34.3613Z" fill="#4E34A6"/>
<path opacity="0.3" d="M319.058 35.9301H260.181V36.7113H319.058V35.9301Z" fill="#4E34A6"/>
</g>
<path d="M116.375 89.6606C116.375 83.5855 121.3 78.6606 127.375 78.6606H324.129C330.204 78.6606 335.129 83.5855 335.129 89.6606V198.255C335.129 204.33 330.204 209.255 324.129 209.255H127.375C121.3 209.255 116.375 204.33 116.375 198.255V89.6606Z" fill="#5573A6"/>
<path d="M116.375 89.6606C116.375 83.5855 121.3 78.6606 127.375 78.6606H324.129C330.204 78.6606 335.129 83.5855 335.129 89.6606V198.255C335.129 204.33 330.204 209.255 324.129 209.255H127.375C121.3 209.255 116.375 204.33 116.375 198.255V89.6606Z" fill="url(#paint26_linear)"/>
<path d="M116.375 89.6606C116.375 83.5855 121.3 78.6606 127.375 78.6606H324.129C330.204 78.6606 335.129 83.5855 335.129 89.6606V198.255C335.129 204.33 330.204 209.255 324.129 209.255H127.375C121.3 209.255 116.375 204.33 116.375 198.255V89.6606Z" fill="#F3F7FF" fill-opacity="0.6"/>
<mask id="mask0" mask-type="alpha" maskUnits="userSpaceOnUse" x="120" y="82" width="211" height="111">
<path d="M120.299 90.1552C120.299 85.7549 123.867 82.1877 128.267 82.1877H322.847C327.247 82.1877 330.815 85.7549 330.815 90.1551V192.87H120.299V90.1552Z" fill="#C7CFD9"/>
</mask>
<g mask="url(#mask0)">
<path d="M334.563 82.1877H104.548V213.692H334.563V82.1877Z" fill="url(#paint27_linear)"/>
<path d="M334.563 82.1877H104.548V213.692H334.563V82.1877Z" fill="url(#paint28_linear)"/>
<path d="M182.697 98.1594H147.823V99.845H182.697V98.1594Z" fill="white"/>
<path d="M182.697 153.568H147.823V155.253H182.697V153.568Z" fill="white"/>
<g opacity="0.5">
<path opacity="0.5" d="M181.894 165.408H152.288V167.093H181.894V165.408Z" fill="white"/>
<path opacity="0.5" d="M181.894 169.469H152.288V171.155H181.894V169.469Z" fill="white"/>
</g>
<g opacity="0.4">
<path opacity="0.4" d="M198.702 185.297H152.288V186.982H198.702V185.297Z" fill="white"/>
<path opacity="0.4" d="M198.702 189.358H152.288V191.044H198.702V189.358Z" fill="white"/>
</g>
<g opacity="0.5">
<path opacity="0.5" d="M260.549 102.221H147.824V103.907H260.549V102.221Z" fill="white"/>
<path opacity="0.5" d="M260.549 106.357H147.824V108.043H260.549V106.357Z" fill="white"/>
</g>
<g opacity="0.3">
<path opacity="0.3" d="M205.526 110.324H155.265V112.01H205.526V110.324Z" fill="white"/>
<path opacity="0.3" d="M228.458 114.386H157.497V116.072H228.458V114.386Z" fill="white"/>
</g>
<g opacity="0.3">
<path opacity="0.3" d="M239.135 157.338H147.823V159.024H239.135V157.338Z" fill="white"/>
</g>
<path opacity="0.8" d="M205.526 141.748H155.265V143.434H205.526V141.748Z" fill="white"/>
<path opacity="0.8" d="M198.085 161.4H147.823V163.086H198.085V161.4Z" fill="white"/>
<path opacity="0.3" d="M228.458 137.687H157.497V139.372H228.458V137.687Z" fill="white"/>
<path opacity="0.5" d="M177.407 118.448H159.728V120.133H177.407V118.448Z" fill="white"/>
<path opacity="0.5" d="M177.407 133.341H159.728V135.026H177.407V133.341Z" fill="white"/>
<g opacity="0.3">
<path opacity="0.3" d="M302.752 122.509H161.961V124.195H302.752V122.509Z" fill="white"/>
<path opacity="0.3" d="M302.753 125.894H161.961V127.58H302.753V125.894Z" fill="white"/>
<path opacity="0.3" d="M302.753 129.279H161.961V130.965H302.753V129.279Z" fill="white"/>
</g>
<g opacity="0.3">
<path opacity="0.3" d="M272.87 174.012H156.008V175.697H272.87V174.012Z" fill="white"/>
<path opacity="0.3" d="M272.871 177.396H156.008V179.082H272.871V177.396Z" fill="white"/>
<path opacity="0.3" d="M272.871 180.781H156.008V182.467H272.871V180.781Z" fill="white"/>
</g>
<g opacity="0.3">
<path opacity="0.3" d="M260.363 145.959H147.824V147.644H260.363V145.959Z" fill="white"/>
<path opacity="0.3" d="M260.363 149.344H147.824V151.029H260.363V149.344Z" fill="white"/>
</g>
</g>
<path d="M350.252 156.77C354.911 156.77 358.688 160.547 358.688 165.205L358.688 223.876C358.688 228.535 354.911 232.311 350.252 232.311H327.493C322.834 232.311 319.058 228.535 319.058 223.876L319.058 165.205C319.058 160.547 322.834 156.77 327.493 156.77L350.252 156.77Z" fill="url(#paint29_linear)"/>
<path d="M350.252 156.77C354.911 156.77 358.688 160.547 358.688 165.205L358.688 223.876C358.688 228.535 354.911 232.311 350.252 232.311H327.493C322.834 232.311 319.058 228.535 319.058 223.876L319.058 165.205C319.058 160.547 322.834 156.77 327.493 156.77L350.252 156.77Z" fill="url(#paint30_linear)"/>
<path opacity="0.41" d="M355.88 213.271H321.785V223.6H355.88V213.271Z" fill="#7797DD"/>
<g filter="url(#filter0_d)">
<path d="M328.271 218.51C328.271 217.683 328.941 217.013 329.768 217.013H347.977C348.804 217.013 349.474 217.683 349.474 218.51C349.474 219.337 348.804 220.007 347.977 220.007H329.768C328.941 220.007 328.271 219.337 328.271 218.51Z" fill="#552CA7"/>
</g>
<path d="M343.809 218.26H334.008V218.967H343.809V218.26Z" fill="url(#paint31_linear)"/>
<path d="M332.263 198.056H323.781V198.804H332.263V198.056Z" fill="url(#paint32_linear)"/>
<path d="M341.99 198.055H333.509V198.804H341.99V198.055Z" fill="url(#paint33_linear)"/>
<path d="M351.719 198.055H343.238V198.804H351.719V198.055Z" fill="url(#paint34_linear)"/>
<path d="M332.262 199.802H323.781V200.55H332.262V199.802Z" fill="url(#paint35_linear)"/>
<path d="M341.99 199.802H333.509V200.55H341.99V199.802Z" fill="url(#paint36_linear)"/>
<path d="M351.719 199.802H343.238V200.55H351.719V199.802Z" fill="url(#paint37_linear)"/>
<path d="M332.262 201.548H323.781V202.296H332.262V201.548Z" fill="url(#paint38_linear)"/>
<path d="M341.99 201.548H333.509V202.296H341.99V201.548Z" fill="url(#paint39_linear)"/>
<path d="M351.719 201.548H343.238V202.296H351.719V201.548Z" fill="url(#paint40_linear)"/>
<path opacity="0.41" d="M355.959 177.352H321.785V205.289H355.959V177.352Z" fill="#7797DD"/>
<path d="M326.347 187.782C326.346 190.521 328.497 192.777 331.235 192.91V195.468C326.987 195.335 323.652 191.786 323.785 187.541C323.912 183.483 327.174 180.223 331.235 180.095V182.653C328.497 182.785 326.346 185.043 326.347 187.782Z" fill="url(#paint41_linear)"/>
<path d="M339.18 187.782C339.182 190.064 338.168 192.228 336.414 193.688L334.762 191.735C336.947 189.924 337.249 186.686 335.438 184.503C334.461 183.327 333.013 182.647 331.484 182.646C331.401 182.646 331.319 182.646 331.237 182.652V180.103H331.484C335.73 180.103 339.173 183.539 339.18 187.782Z" fill="#46DBC9"/>
<path d="M336.414 193.691C335.032 194.848 333.286 195.479 331.484 195.476C331.401 195.476 331.319 195.476 331.237 195.471V192.914C331.319 192.914 331.401 192.919 331.484 192.919C332.682 192.921 333.842 192.503 334.762 191.738L336.414 193.691Z" fill="url(#paint42_linear)"/>
<path d="M351.792 185.344H341.99V186.051H351.792V185.344Z" fill="url(#paint43_linear)"/>
<path d="M351.792 187.425H341.99V188.131H351.792V187.425Z" fill="url(#paint44_linear)"/>
<path d="M351.792 189.505H341.99V190.212H351.792V189.505Z" fill="url(#paint45_linear)"/>
<path d="M351.719 166.625H331.514V167.873H351.719V166.625Z" fill="url(#paint46_linear)"/>
<path d="M351.719 169.369H331.514V170.617H351.719V169.369Z" fill="url(#paint47_linear)"/>
<path d="M326.481 171.408C327.996 171.408 329.225 170.18 329.225 168.664C329.225 167.149 327.996 165.921 326.481 165.921C324.965 165.921 323.737 167.149 323.737 168.664C323.737 170.18 324.965 171.408 326.481 171.408Z" fill="#46DBC9"/>
<path opacity="0.41" d="M355.88 163.383H321.785V173.711H355.88V163.383Z" fill="#7797DD"/>
<path opacity="0.1" d="M297.291 401.742C301.653 402.209 306.039 402.695 309.062 403.352C314.449 404.521 314.781 406.111 311.874 407.533C308.971 408.955 261.135 412.063 248.796 411.985C229.641 411.865 210.295 412.358 191.024 412.655C183.675 412.768 175.853 412.838 169.636 412.329C163.419 411.82 159.827 410.732 160.823 409.657C161.689 408.723 165.632 407.875 167.081 406.948C168.977 405.74 166.467 404.513 167.534 403.29C169.068 401.51 284.55 400.377 297.291 401.742Z" fill="black"/>
<path opacity="0.1" d="M385.157 398.368C396.484 397.531 407.877 396.662 415.728 395.484C429.72 393.39 430.582 390.543 423.031 387.995C415.493 385.448 291.251 379.881 259.204 380.021C209.454 380.236 159.209 379.352 109.159 378.82C90.072 378.619 69.7568 378.492 53.6092 379.404C37.4616 380.315 28.1336 382.265 30.7204 384.19C32.9675 385.864 43.21 387.383 46.9726 389.042C51.8979 391.207 45.3788 393.404 48.1484 395.596C52.1331 398.784 352.065 400.812 385.157 398.368Z" fill="black"/>
<path d="M288.224 221.524C289.253 224.43 290.227 227.478 289.589 230.472C289.357 231.506 288.939 232.491 288.356 233.377C285.451 237.878 278.572 238.577 273.84 235.875C269.108 233.174 266.439 228.007 265.129 222.807C264.612 221.068 264.441 219.241 264.623 217.43C265.041 214.277 267.132 211.62 269.311 209.297C272.217 206.276 277.543 202.326 281.445 205.957C284.955 209.209 286.672 217.183 288.224 221.524Z" fill="#F7E8DF"/>
<path d="M169.503 220.655C168.87 221.855 168.573 223.208 168.645 224.562C168.821 225.431 169.168 226.262 169.663 227C170.884 229.195 172.513 231.132 174.467 232.706C176.437 234.285 178.929 235.061 181.45 234.868C185.164 234.461 188.113 231.512 190.089 228.331C192.141 225.31 193.22 221.734 193.181 218.08C193.066 216.154 192.532 214.277 191.608 212.588C190.683 210.893 189.395 209.43 187.838 208.29C185.037 206.26 179.199 204.411 176.035 206.739C172.871 209.066 171.082 216.908 169.503 220.655Z" fill="#F7E8DF"/>
<path d="M246.205 118.553C246.568 118.404 246.948 118.377 247.317 118.465C247.685 118.558 248.038 118.773 248.346 119.086C248.769 119.774 249.017 120.655 249.05 121.568C249.309 123.417 249.364 125.316 249.204 127.186C249.034 129.046 248.39 130.758 247.399 131.996C246.629 132.805 245.754 133.404 244.829 133.768C244.136 134.219 243.344 134.257 242.628 133.883C242.315 133.581 242.056 133.184 241.864 132.717C241.671 132.254 241.555 131.732 241.528 131.198C240.719 125.58 241.957 119.653 246.205 118.553Z" fill="#F7E8DF"/>
<path d="M199.02 118.767C198.458 118.624 197.869 118.624 197.308 118.767C196.697 119.064 196.175 119.538 195.817 120.126C195.454 120.715 195.267 121.398 195.272 122.096C195.179 123.461 195.267 124.837 195.525 126.179C195.767 128.424 196.664 130.548 198.101 132.265C198.821 133.091 199.795 133.646 200.857 133.834C201.919 134.021 203.02 133.839 203.966 133.311C209.981 129.035 204.324 119.956 199.02 118.767Z" fill="#F7E8DF"/>
<path d="M233.879 158.821C234.165 160.136 234.242 161.49 234.11 162.827C233.571 166.547 229.873 169.144 226.153 169.612C222.439 170.074 218.719 168.825 215.253 167.449C214.185 167.092 213.2 166.531 212.347 165.793C211.494 164.902 210.917 163.79 210.68 162.585C210.262 160.494 210.135 158.354 210.3 156.224L210.531 148.729C210.46 147.266 210.751 145.802 211.373 144.476C212.826 141.994 216.15 141.57 219.039 141.383C222.824 141.224 228.531 141.383 231.029 144.839C233.533 148.295 233.241 154.799 233.879 158.821Z" fill="#F7E8DF"/>
<path fill-rule="evenodd" clip-rule="evenodd" d="M200.506 119.286C200.207 119.171 199.907 119.079 199.609 119.013C199.048 118.87 198.459 118.87 197.897 119.013C197.287 119.31 196.764 119.783 196.406 120.372C196.043 120.961 195.856 121.643 195.862 122.342C195.768 123.706 195.856 125.082 196.115 126.425C196.356 128.67 197.253 130.794 198.69 132.511C199.41 133.336 200.385 133.892 201.446 134.079C202.238 134.218 203.051 134.153 203.805 133.892C203.025 133.622 202.32 133.146 201.766 132.511C200.329 130.794 199.432 128.67 199.191 126.425C198.932 125.082 198.844 123.706 198.937 122.342C198.932 121.643 199.119 120.96 199.482 120.372C199.744 119.94 200.096 119.57 200.506 119.286ZM282.084 237.612C280.476 237.416 278.898 236.916 277.505 236.121C272.772 233.419 270.104 228.252 268.794 223.052C268.277 221.313 268.106 219.486 268.288 217.676C268.706 214.523 270.797 211.865 272.976 209.543C274.703 207.748 277.284 205.624 279.914 204.958C276.371 203.903 272.306 207.041 269.9 209.543C267.721 211.865 265.63 214.523 265.212 217.676C265.03 219.486 265.201 221.313 265.718 223.052C267.028 228.252 269.696 233.419 274.429 236.121C276.711 237.423 279.491 237.936 282.084 237.612ZM172.31 224.807C172.238 223.454 172.535 222.1 173.168 220.9C173.589 219.903 174.024 218.616 174.496 217.219L174.497 217.217C175.798 213.368 177.379 208.692 179.7 206.984C180.38 206.484 181.183 206.177 182.053 206.023C180.048 205.731 178.061 205.927 176.624 206.984C174.303 208.692 172.722 213.368 171.421 217.217L171.42 217.22C170.948 218.616 170.513 219.903 170.092 220.9C169.459 222.1 169.162 223.454 169.234 224.807C169.41 225.677 169.757 226.508 170.252 227.245C171.473 229.441 173.102 231.377 175.056 232.951C177.026 234.531 179.518 235.306 182.039 235.114C182.272 235.088 182.501 235.053 182.728 235.008C181.058 234.73 179.473 234.027 178.132 232.951C176.178 231.377 174.549 229.44 173.328 227.245C172.832 226.507 172.486 225.677 172.31 224.807ZM222.882 141.621C222.822 141.624 222.763 141.626 222.704 141.629C219.815 141.816 216.491 142.239 215.038 144.721C214.416 146.047 214.125 147.511 214.196 148.975L213.965 156.469C213.8 158.599 213.927 160.739 214.345 162.83C214.581 164.035 215.159 165.147 216.012 166.038C216.865 166.776 217.85 167.337 218.918 167.695C221.392 168.677 223.995 169.594 226.633 169.871C222.955 170.295 219.274 169.057 215.842 167.695C214.774 167.337 213.789 166.776 212.937 166.039C212.083 165.147 211.506 164.036 211.269 162.83C210.851 160.739 210.724 158.599 210.889 156.469L211.12 148.975C211.049 147.511 211.341 146.047 211.962 144.721C213.415 142.239 216.739 141.816 219.628 141.629C220.613 141.587 221.728 141.567 222.882 141.621Z" fill="#E8C9BA"/>
<path d="M241.705 259.46L191.922 262.398L183.046 274.427L178.71 293.538L186.188 326.219L196.275 391.167H212.436L209.817 305.98L224.102 302.397L238.304 302.051L245.991 305.98L244.819 389.786H264.552L272.239 311.031L275.381 291.706L272.239 278.29L262.951 259.251L241.705 259.46Z" fill="#606161"/>
<path d="M179.48 171.048L208.7 161.787L219.265 163.042L230.144 161.787L266.511 168.891L277.39 181.25L289.204 216.473L269.62 222.036L264.921 271.962L191.927 272.622L187.872 215.549L169.223 212.148L173.576 182.18L179.48 171.048Z" fill="#46DBC9"/>
<path d="M241.705 259.46L191.922 262.398L183.046 274.427L178.71 293.538L186.188 326.219L196.275 391.167H212.436L209.817 305.98L224.102 302.397L238.304 302.051L245.991 305.98L244.819 389.786H264.552L272.239 311.031L275.381 291.706L272.239 278.29L262.951 259.251L241.705 259.46Z" fill="#606161"/>
<path fill-rule="evenodd" clip-rule="evenodd" d="M198.085 262.398L247.867 259.46L262.98 259.311L262.951 259.251L241.705 259.46L191.922 262.398L183.046 274.427L178.71 293.538L186.188 326.219L196.275 391.167L202.437 391.167L192.351 326.219L184.873 293.538L189.209 274.427L198.085 262.398ZM238.585 302.194L245.991 305.98L244.819 389.786L250.982 389.786L252.154 305.98L244.467 302.051L238.585 302.194Z" fill="#444444"/>
<path d="M179.48 171.048L208.7 161.787L219.265 163.042L230.144 161.787L266.511 168.891L277.39 181.25L289.204 216.473L269.62 222.036L264.921 271.962L191.927 272.622L187.872 215.549L169.223 212.148L173.576 182.18L179.48 171.048Z" fill="#46DBC9"/>
<path d="M179.48 171.048L208.7 161.787L219.265 163.042L230.144 161.787L266.511 168.891L277.39 181.25L289.204 216.473L269.62 222.036L264.921 271.962L191.927 272.622L187.872 215.549L169.223 212.148L173.576 182.18L179.48 171.048Z" fill="#C7CFD9"/>
<path d="M208.7 161.787L179.48 171.048L173.576 182.18L169.223 212.148L187.872 215.549L191.927 272.622L195.543 272.59L191.49 215.549L172.841 212.148L177.194 182.18L183.098 171.048L211.332 162.1L208.7 161.787Z" fill="#7C8B9D"/>
<path d="M215.313 396.626V401.165C215.313 404.643 213.206 407.488 210.625 407.488L187.184 411.439C184.603 411.439 182.495 408.594 182.495 405.116C182.495 405.116 192.769 392.961 195.35 392.961L210.631 390.297C213.2 390.303 215.313 393.148 215.313 396.626Z" fill="#C7CFD9"/>
<path d="M243.899 398.419L245.066 402.81C245.957 406.173 249.204 408.253 252.28 407.438L281.241 403.834C284.317 403.019 286.1 399.597 285.208 396.235C285.208 396.235 269.839 387.739 266.763 388.558L247.867 390.826C244.791 391.64 243.008 395.057 243.899 398.419Z" fill="#C7CFD9"/>
<g filter="url(#filter1_i)">
<path d="M248.984 263.301H209.436C194.92 263.301 183.046 251.426 183.046 236.91V211.179C183.046 196.663 194.92 184.789 209.436 184.789H248.984C263.5 184.789 275.375 196.663 275.375 211.179V236.91C275.381 251.426 263.506 263.301 248.984 263.301Z" fill="url(#paint48_linear)"/>
<path d="M248.984 263.301H209.436C194.92 263.301 183.046 251.426 183.046 236.91V211.179C183.046 196.663 194.92 184.789 209.436 184.789H248.984C263.5 184.789 275.375 196.663 275.375 211.179V236.91C275.381 251.426 263.506 263.301 248.984 263.301Z" fill="#1E8396"/>
</g>
<path d="M212.436 305.98V336.371H212.48C212.947 342.017 217.669 346.458 223.441 346.458H234.98C240.747 346.458 245.468 342.017 245.941 336.371H245.985V305.98H212.436Z" fill="black"/>
<g filter="url(#filter2_i)">
<path d="M271.672 316.947H186.755C181.324 316.947 176.883 312.506 176.883 307.075C176.883 301.644 181.324 297.203 186.755 297.203H271.672C277.103 297.203 281.544 301.644 281.544 307.075C281.55 312.5 277.103 316.947 271.672 316.947Z" fill="url(#paint49_linear)"/>
<path d="M271.672 316.947H186.755C181.324 316.947 176.883 312.506 176.883 307.075C176.883 301.644 181.324 297.203 186.755 297.203H271.672C277.103 297.203 281.544 301.644 281.544 307.075C281.55 312.5 277.103 316.947 271.672 316.947Z" fill="#1E8396"/>
</g>
<path d="M220.887 329.916V218.938C220.887 216.726 222.698 214.91 224.915 214.91H233.516C235.728 214.91 237.544 216.721 237.544 218.938V329.916C237.544 332.128 235.734 333.944 233.516 333.944H224.915C222.698 333.944 220.887 332.128 220.887 329.916Z" fill="#D6D6D6"/>
<path d="M233.68 403.15L233.68 341.388L224.744 341.388L224.744 403.15L233.68 403.15Z" fill="black"/>
<path d="M258.185 381.163C250.388 378.175 240.098 376.53 229.214 376.53C218.329 376.53 208.039 378.175 200.242 381.163C191.184 384.635 186.194 389.753 186.194 395.58V397.506H194.519V395.58C194.519 391.943 206.768 384.861 229.214 384.861C251.664 384.861 263.908 391.943 263.908 395.58V397.506H272.234V395.58C272.239 389.753 267.248 384.635 258.185 381.163Z" fill="black"/>
<path d="M190.452 404.632C194.85 404.632 198.415 402.168 198.415 399.129C198.415 396.09 194.85 393.626 190.452 393.626C186.055 393.626 182.49 396.09 182.49 399.129C182.49 402.168 186.055 404.632 190.452 404.632Z" fill="black"/>
<path d="M268.035 404.632C272.432 404.632 275.997 402.168 275.997 399.129C275.997 396.09 272.432 393.626 268.035 393.626C263.637 393.626 260.072 396.09 260.072 399.129C260.072 402.168 263.637 404.632 268.035 404.632Z" fill="black"/>
<path d="M229.213 411.879C233.61 411.879 237.175 409.415 237.175 406.376C237.175 403.337 233.61 400.874 229.213 400.874C224.815 400.874 221.251 403.337 221.251 406.376C221.251 409.415 224.815 411.879 229.213 411.879Z" fill="black"/>
<path d="M195.262 97.4278L190.453 84.7166L198.2 89.8175L198.954 82.642L206.592 88.3153L196.231 73.7827L219.7 85.4924L217.603 79.3349L227.981 85.0467L231.107 81.4204L235.712 89.8231L239.641 87.2698L248.093 99.7059L246.344 116.341L241.138 133.933L233.792 148.652L223.926 152.57L210.224 149.478L202.916 131.875C202.916 131.875 197.078 114.932 197.177 113.958C197.282 112.978 195.262 97.4278 195.262 97.4278Z" fill="#5A3A2F"/>
<path d="M190.453 85.7601L195.262 98.4713C195.262 98.4713 197.282 114.022 197.177 115.001C197.078 115.975 202.917 132.918 202.917 132.918L210.224 150.521L214.679 151.527L207.955 135.33C207.955 135.33 202.299 118.915 202.394 117.971C202.496 117.022 200.539 101.956 200.539 101.956V96.2542L203.386 94.5827L207.955 96.2542L211.516 93.1273L214.679 87.8495L224.215 90.3923L225.611 87.8495L232.239 89.9605L234.058 87.8495L231.107 82.464L227.981 86.0903L217.603 80.3785L219.7 86.536L196.231 74.8263L206.592 89.3589L198.954 83.6856V90.3923L190.453 85.7601Z" fill="#34231D"/>
<path d="M237.17 89.9192L239.729 94.5881L242.626 92.7055L239.641 88.3134L237.17 89.9192Z" fill="#34231D"/>
<defs>
<filter id="filter0_d" x="324.053" y="213.639" width="29.638" height="11.4286" filterUnits="userSpaceOnUse" color-interpolation-filters="sRGB">
<feFlood flood-opacity="0" result="BackgroundImageFix"/>
<feColorMatrix in="SourceAlpha" type="matrix" values="0 0 0 0 0 0 0 0 0 0 0 0 0 0 0 0 0 0 127 0"/>
<feOffset dy="0.843526"/>
<feGaussianBlur stdDeviation="2.10881"/>
<feColorMatrix type="matrix" values="0 0 0 0 0 0 0 0 0 0 0 0 0 0 0 0 0 0 0.25 0"/>
<feBlend mode="normal" in2="BackgroundImageFix" result="effect1_dropShadow"/>
<feBlend mode="normal" in="SourceGraphic" in2="effect1_dropShadow" result="shape"/>
</filter>
<filter id="filter1_i" x="183.046" y="184.789" width="92.3296" height="78.5124" filterUnits="userSpaceOnUse" color-interpolation-filters="sRGB">
<feFlood flood-opacity="0" result="BackgroundImageFix"/>
<feBlend mode="normal" in="SourceGraphic" in2="BackgroundImageFix" result="shape"/>
<feColorMatrix in="SourceAlpha" type="matrix" values="0 0 0 0 0 0 0 0 0 0 0 0 0 0 0 0 0 0 127 0" result="hardAlpha"/>
<feOffset dx="9"/>
<feComposite in2="hardAlpha" operator="arithmetic" k2="-1" k3="1"/>
<feColorMatrix type="matrix" values="0 0 0 0 0.133333 0 0 0 0 0.407843 0 0 0 0 0.458824 0 0 0 1 0"/>
<feBlend mode="normal" in2="shape" result="effect1_innerShadow"/>
</filter>
<filter id="filter2_i" x="176.883" y="297.203" width="104.661" height="19.7437" filterUnits="userSpaceOnUse" color-interpolation-filters="sRGB">
<feFlood flood-opacity="0" result="BackgroundImageFix"/>
<feBlend mode="normal" in="SourceGraphic" in2="BackgroundImageFix" result="shape"/>
<feColorMatrix in="SourceAlpha" type="matrix" values="0 0 0 0 0 0 0 0 0 0 0 0 0 0 0 0 0 0 127 0" result="hardAlpha"/>
<feOffset dx="9"/>
<feComposite in2="hardAlpha" operator="arithmetic" k2="-1" k3="1"/>
<feColorMatrix type="matrix" values="0 0 0 0 0.133333 0 0 0 0 0.407843 0 0 0 0 0.458824 0 0 0 1 0"/>
<feBlend mode="normal" in2="shape" result="effect1_innerShadow"/>
</filter>
<linearGradient id="paint0_linear" x1="422.282" y1="218.296" x2="248.094" y2="218.296" gradientUnits="userSpaceOnUse">
<stop stop-color="#B2C3FB"/>
<stop offset="1" stop-color="#68E1FD"/>
</linearGradient>
<linearGradient id="paint1_linear" x1="18.9538" y1="329.245" x2="429.994" y2="329.245" gradientUnits="userSpaceOnUse">
<stop stop-color="#0D408D"/>
<stop offset="1" stop-color="#1E8396"/>
</linearGradient>
<linearGradient id="paint2_linear" x1="326.449" y1="243.689" x2="244.462" y2="373.902" gradientUnits="userSpaceOnUse">
<stop stop-color="#B2C3FB"/>
<stop offset="1" stop-color="#E3F0F3"/>
</linearGradient>
<linearGradient id="paint3_linear" x1="224.289" y1="239.373" x2="224.289" y2="390.297" gradientUnits="userSpaceOnUse">
<stop/>
<stop offset="1" stop-color="#1B3C87" stop-opacity="0.38"/>
</linearGradient>
<linearGradient id="paint4_linear" x1="224.289" y1="239.373" x2="224.289" y2="390.297" gradientUnits="userSpaceOnUse">
<stop/>
<stop offset="1" stop-color="#1B3C87" stop-opacity="0.38"/>
</linearGradient>
<linearGradient id="paint5_linear" x1="224.289" y1="239.373" x2="224.289" y2="390.297" gradientUnits="userSpaceOnUse">
<stop/>
<stop offset="1" stop-color="#1B3C87" stop-opacity="0.38"/>
</linearGradient>
<linearGradient id="paint6_linear" x1="224.289" y1="239.373" x2="224.289" y2="390.297" gradientUnits="userSpaceOnUse">
<stop/>
<stop offset="1" stop-color="#1B3C87" stop-opacity="0.38"/>
</linearGradient>
<linearGradient id="paint7_linear" x1="376.755" y1="122.125" x2="255.95" y2="141.972" gradientUnits="userSpaceOnUse">
<stop stop-color="#2F53A0"/>
<stop offset="0.416667" stop-color="#4140A3"/>
<stop offset="1" stop-color="#552CA7"/>
</linearGradient>
<linearGradient id="paint8_linear" x1="385.449" y1="136.41" x2="312.407" y2="138.089" gradientUnits="userSpaceOnUse">
<stop offset="0.03" stop-color="white" stop-opacity="0"/>
<stop offset="1" stop-color="white"/>
</linearGradient>
<linearGradient id="paint9_linear" x1="367.404" y1="128.888" x2="384.625" y2="172.671" gradientUnits="userSpaceOnUse">
<stop offset="0.03" stop-color="white" stop-opacity="0"/>
<stop offset="1" stop-color="white"/>
</linearGradient>
<linearGradient id="paint10_linear" x1="118.225" y1="170.004" x2="20.7529" y2="186.017" gradientUnits="userSpaceOnUse">
<stop stop-color="#2F53A0"/>
<stop offset="0.416667" stop-color="#4140A3"/>
<stop offset="1" stop-color="#552CA7"/>
</linearGradient>
<linearGradient id="paint11_linear" x1="68.8768" y1="182.818" x2="27.7923" y2="183.763" gradientUnits="userSpaceOnUse">
<stop offset="0.03" stop-color="white" stop-opacity="0"/>
<stop offset="1" stop-color="white"/>
</linearGradient>
<linearGradient id="paint12_linear" x1="58.7272" y1="178.587" x2="68.4132" y2="203.214" gradientUnits="userSpaceOnUse">
<stop offset="0.03" stop-color="white" stop-opacity="0"/>
<stop offset="1" stop-color="white"/>
</linearGradient>
<linearGradient id="paint13_linear" x1="99.9974" y1="162.978" x2="114.642" y2="196.419" gradientUnits="userSpaceOnUse">
<stop stop-color="white" stop-opacity="0"/>
<stop offset="1" stop-color="white"/>
</linearGradient>
<linearGradient id="paint14_linear" x1="91.5971" y1="160.459" x2="92.0723" y2="198.904" gradientUnits="userSpaceOnUse">
<stop offset="0.03" stop-color="white" stop-opacity="0"/>
<stop offset="1" stop-color="white"/>
</linearGradient>
<linearGradient id="paint15_linear" x1="91.8767" y1="186.537" x2="92.3535" y2="224.982" gradientUnits="userSpaceOnUse">
<stop offset="0.03" stop-color="white" stop-opacity="0"/>
<stop offset="0.45" stop-color="white" stop-opacity="0.45"/>
<stop offset="1" stop-color="white"/>
</linearGradient>
<linearGradient id="paint16_linear" x1="91.8338" y1="186.537" x2="92.3106" y2="224.982" gradientUnits="userSpaceOnUse">
<stop offset="0.03" stop-color="white" stop-opacity="0"/>
<stop offset="1" stop-color="white"/>
</linearGradient>
<linearGradient id="paint17_linear" x1="108.537" y1="204.91" x2="108.582" y2="187.899" gradientUnits="userSpaceOnUse">
<stop offset="0.03" stop-color="white" stop-opacity="0"/>
<stop offset="0.45" stop-color="white" stop-opacity="0.45"/>
<stop offset="1" stop-color="white"/>
</linearGradient>
<linearGradient id="paint18_linear" x1="108.553" y1="202.543" x2="108.597" y2="185.533" gradientUnits="userSpaceOnUse">
<stop offset="0.03" stop-color="white" stop-opacity="0"/>
<stop offset="0.45" stop-color="white" stop-opacity="0.45"/>
<stop offset="1" stop-color="white"/>
</linearGradient>
<linearGradient id="paint19_linear" x1="108.562" y1="202.545" x2="108.606" y2="185.533" gradientUnits="userSpaceOnUse">
<stop offset="0.03" stop-color="white" stop-opacity="0"/>
<stop offset="0.45" stop-color="white" stop-opacity="0.45"/>
<stop offset="1" stop-color="white"/>
</linearGradient>
<linearGradient id="paint20_linear" x1="164.749" y1="53.4294" x2="65.3971" y2="62.0702" gradientUnits="userSpaceOnUse">
<stop stop-color="#2F53A0"/>
<stop offset="0.416667" stop-color="#4140A3"/>
<stop offset="1" stop-color="#552CA7"/>
</linearGradient>
<linearGradient id="paint21_linear" x1="122.415" y1="33.6469" x2="143.887" y2="82.6754" gradientUnits="userSpaceOnUse">
<stop stop-color="white" stop-opacity="0"/>
<stop offset="1" stop-color="white"/>
</linearGradient>
<linearGradient id="paint22_linear" x1="134.935" y1="95.1248" x2="135.002" y2="70.1848" gradientUnits="userSpaceOnUse">
<stop offset="0.03" stop-color="white" stop-opacity="0"/>
<stop offset="0.45" stop-color="white" stop-opacity="0.45"/>
<stop offset="1" stop-color="white"/>
</linearGradient>
<linearGradient id="paint23_linear" x1="134.959" y1="91.655" x2="135.023" y2="66.7154" gradientUnits="userSpaceOnUse">
<stop offset="0.03" stop-color="white" stop-opacity="0"/>
<stop offset="0.45" stop-color="white" stop-opacity="0.45"/>
<stop offset="1" stop-color="white"/>
</linearGradient>
<linearGradient id="paint24_linear" x1="134.972" y1="91.6578" x2="135.037" y2="66.7157" gradientUnits="userSpaceOnUse">
<stop offset="0.03" stop-color="white" stop-opacity="0"/>
<stop offset="0.45" stop-color="white" stop-opacity="0.45"/>
<stop offset="1" stop-color="white"/>
</linearGradient>
<linearGradient id="paint25_linear" x1="325.68" y1="18.7989" x2="228.208" y2="34.812" gradientUnits="userSpaceOnUse">
<stop stop-color="#2F53A0"/>
<stop offset="0.416667" stop-color="#4140A3"/>
<stop offset="1" stop-color="#552CA7"/>
</linearGradient>
<linearGradient id="paint26_linear" x1="280.022" y1="116.944" x2="71.7822" y2="152.934" gradientUnits="userSpaceOnUse">
<stop stop-color="#2F53A0"/>
<stop offset="0.416667" stop-color="#4140A3"/>
<stop offset="1" stop-color="#552CA7"/>
</linearGradient>
<linearGradient id="paint27_linear" x1="104.548" y1="160.495" x2="334.562" y2="160.495" gradientUnits="userSpaceOnUse">
<stop stop-color="#0D408D"/>
<stop offset="1" stop-color="#1E8396"/>
</linearGradient>
<linearGradient id="paint28_linear" x1="276.619" y1="128.098" x2="116.134" y2="141.506" gradientUnits="userSpaceOnUse">
<stop stop-color="#2F53A0"/>
<stop offset="1" stop-color="#552CA7"/>
</linearGradient>
<linearGradient id="paint29_linear" x1="335.089" y1="156.77" x2="335.089" y2="232.311" gradientUnits="userSpaceOnUse">
<stop stop-color="#0D408D"/>
<stop offset="1" stop-color="#1E8396"/>
</linearGradient>
<linearGradient id="paint30_linear" x1="344.852" y1="213.281" x2="340.059" y2="160.643" gradientUnits="userSpaceOnUse">
<stop stop-color="#2F53A0"/>
<stop offset="1" stop-color="#552CA7"/>
</linearGradient>
<linearGradient id="paint31_linear" x1="338.68" y1="200.157" x2="338.966" y2="223.296" gradientUnits="userSpaceOnUse">
<stop offset="0.03" stop-color="white" stop-opacity="0"/>
<stop offset="1" stop-color="white"/>
</linearGradient>
<linearGradient id="paint32_linear" x1="327.824" y1="178.876" x2="328.195" y2="203.389" gradientUnits="userSpaceOnUse">
<stop offset="0.03" stop-color="white" stop-opacity="0"/>
<stop offset="1" stop-color="white"/>
</linearGradient>
<linearGradient id="paint33_linear" x1="337.552" y1="178.876" x2="337.923" y2="203.389" gradientUnits="userSpaceOnUse">
<stop offset="0.03" stop-color="white" stop-opacity="0"/>
<stop offset="1" stop-color="white"/>
</linearGradient>
<linearGradient id="paint34_linear" x1="347.28" y1="178.876" x2="347.651" y2="203.389" gradientUnits="userSpaceOnUse">
<stop offset="0.03" stop-color="white" stop-opacity="0"/>
<stop offset="1" stop-color="white"/>
</linearGradient>
<linearGradient id="paint35_linear" x1="327.824" y1="180.622" x2="328.195" y2="205.135" gradientUnits="userSpaceOnUse">
<stop offset="0.03" stop-color="white" stop-opacity="0"/>
<stop offset="1" stop-color="white"/>
</linearGradient>
<linearGradient id="paint36_linear" x1="337.552" y1="180.622" x2="337.923" y2="205.135" gradientUnits="userSpaceOnUse">
<stop offset="0.03" stop-color="white" stop-opacity="0"/>
<stop offset="1" stop-color="white"/>
</linearGradient>
<linearGradient id="paint37_linear" x1="347.28" y1="180.622" x2="347.651" y2="205.135" gradientUnits="userSpaceOnUse">
<stop offset="0.03" stop-color="white" stop-opacity="0"/>
<stop offset="1" stop-color="white"/>
</linearGradient>
<linearGradient id="paint38_linear" x1="327.824" y1="182.368" x2="328.195" y2="206.881" gradientUnits="userSpaceOnUse">
<stop offset="0.03" stop-color="white" stop-opacity="0"/>
<stop offset="1" stop-color="white"/>
</linearGradient>
<linearGradient id="paint39_linear" x1="337.552" y1="182.368" x2="337.923" y2="206.881" gradientUnits="userSpaceOnUse">
<stop offset="0.03" stop-color="white" stop-opacity="0"/>
<stop offset="1" stop-color="white"/>
</linearGradient>
<linearGradient id="paint40_linear" x1="347.28" y1="182.368" x2="347.651" y2="206.881" gradientUnits="userSpaceOnUse">
<stop offset="0.03" stop-color="white" stop-opacity="0"/>
<stop offset="1" stop-color="white"/>
</linearGradient>
<linearGradient id="paint41_linear" x1="336.209" y1="187.667" x2="311.481" y2="188.236" gradientUnits="userSpaceOnUse">
<stop offset="0.03" stop-color="white" stop-opacity="0"/>
<stop offset="1" stop-color="white"/>
</linearGradient>
<linearGradient id="paint42_linear" x1="330.1" y1="185.121" x2="335.93" y2="199.943" gradientUnits="userSpaceOnUse">
<stop offset="0.03" stop-color="white" stop-opacity="0"/>
<stop offset="1" stop-color="white"/>
</linearGradient>
<linearGradient id="paint43_linear" x1="346.663" y1="167.24" x2="346.949" y2="190.38" gradientUnits="userSpaceOnUse">
<stop offset="0.03" stop-color="white" stop-opacity="0"/>
<stop offset="1" stop-color="white"/>
</linearGradient>
<linearGradient id="paint44_linear" x1="346.831" y1="182.937" x2="347.118" y2="206.076" gradientUnits="userSpaceOnUse">
<stop offset="0.03" stop-color="white" stop-opacity="0"/>
<stop offset="0.45" stop-color="white" stop-opacity="0.45"/>
<stop offset="1" stop-color="white"/>
</linearGradient>
<linearGradient id="paint45_linear" x1="346.805" y1="182.937" x2="347.092" y2="206.076" gradientUnits="userSpaceOnUse">
<stop offset="0.03" stop-color="white" stop-opacity="0"/>
<stop offset="1" stop-color="white"/>
</linearGradient>
<linearGradient id="paint46_linear" x1="341.145" y1="134.659" x2="341.578" y2="175.519" gradientUnits="userSpaceOnUse">
<stop offset="0.03" stop-color="#46DBC9" stop-opacity="0"/>
<stop offset="1" stop-color="white"/>
</linearGradient>
<linearGradient id="paint47_linear" x1="341.145" y1="137.403" x2="341.578" y2="178.263" gradientUnits="userSpaceOnUse">
<stop offset="0.03" stop-color="#46DBC9" stop-opacity="0"/>
<stop offset="1" stop-color="white"/>
</linearGradient>
<linearGradient id="paint48_linear" x1="183.046" y1="231.541" x2="275.375" y2="231.541" gradientUnits="userSpaceOnUse">
<stop stop-color="#0D408D"/>
<stop offset="1" stop-color="#1E8396"/>
</linearGradient>
<linearGradient id="paint49_linear" x1="176.883" y1="308.96" x2="281.543" y2="308.96" gradientUnits="userSpaceOnUse">
<stop stop-color="#0D408D"/>
<stop offset="1" stop-color="#1E8396"/>
</linearGradient>
</defs>
</svg>
